G04 #@! TF.GenerationSoftware,KiCad,Pcbnew,7.0.1*
G04 #@! TF.CreationDate,2024-03-07T21:27:49+09:00*
G04 #@! TF.ProjectId,MP2603-array,4d503236-3033-42d6-9172-7261792e6b69,rev?*
G04 #@! TF.SameCoordinates,PX94c5f00PY6bc3e40*
G04 #@! TF.FileFunction,Copper,L1,Top*
G04 #@! TF.FilePolarity,Positive*
%FSLAX46Y46*%
G04 Gerber Fmt 4.6, Leading zero omitted, Abs format (unit mm)*
G04 Created by KiCad (PCBNEW 7.0.1) date 2024-03-07 21:27:49*
%MOMM*%
%LPD*%
G01*
G04 APERTURE LIST*
G04 Aperture macros list*
%AMRoundRect*
0 Rectangle with rounded corners*
0 $1 Rounding radius*
0 $2 $3 $4 $5 $6 $7 $8 $9 X,Y pos of 4 corners*
0 Add a 4 corners polygon primitive as box body*
4,1,4,$2,$3,$4,$5,$6,$7,$8,$9,$2,$3,0*
0 Add four circle primitives for the rounded corners*
1,1,$1+$1,$2,$3*
1,1,$1+$1,$4,$5*
1,1,$1+$1,$6,$7*
1,1,$1+$1,$8,$9*
0 Add four rect primitives between the rounded corners*
20,1,$1+$1,$2,$3,$4,$5,0*
20,1,$1+$1,$4,$5,$6,$7,0*
20,1,$1+$1,$6,$7,$8,$9,0*
20,1,$1+$1,$8,$9,$2,$3,0*%
G04 Aperture macros list end*
G04 #@! TA.AperFunction,SMDPad,CuDef*
%ADD10RoundRect,0.225000X-0.250000X0.225000X-0.250000X-0.225000X0.250000X-0.225000X0.250000X0.225000X0*%
G04 #@! TD*
G04 #@! TA.AperFunction,SMDPad,CuDef*
%ADD11RoundRect,0.200000X-0.200000X-0.275000X0.200000X-0.275000X0.200000X0.275000X-0.200000X0.275000X0*%
G04 #@! TD*
G04 #@! TA.AperFunction,SMDPad,CuDef*
%ADD12RoundRect,0.218750X-0.256250X0.218750X-0.256250X-0.218750X0.256250X-0.218750X0.256250X0.218750X0*%
G04 #@! TD*
G04 #@! TA.AperFunction,SMDPad,CuDef*
%ADD13RoundRect,0.200000X0.275000X-0.200000X0.275000X0.200000X-0.275000X0.200000X-0.275000X-0.200000X0*%
G04 #@! TD*
G04 #@! TA.AperFunction,SMDPad,CuDef*
%ADD14RoundRect,0.225000X-0.225000X-0.250000X0.225000X-0.250000X0.225000X0.250000X-0.225000X0.250000X0*%
G04 #@! TD*
G04 #@! TA.AperFunction,ComponentPad*
%ADD15RoundRect,0.250000X0.265000X0.615000X-0.265000X0.615000X-0.265000X-0.615000X0.265000X-0.615000X0*%
G04 #@! TD*
G04 #@! TA.AperFunction,ComponentPad*
%ADD16O,1.030000X1.730000*%
G04 #@! TD*
G04 #@! TA.AperFunction,SMDPad,CuDef*
%ADD17RoundRect,0.150000X-0.150000X0.512500X-0.150000X-0.512500X0.150000X-0.512500X0.150000X0.512500X0*%
G04 #@! TD*
G04 #@! TA.AperFunction,SMDPad,CuDef*
%ADD18RoundRect,0.200000X0.200000X0.275000X-0.200000X0.275000X-0.200000X-0.275000X0.200000X-0.275000X0*%
G04 #@! TD*
G04 #@! TA.AperFunction,ComponentPad*
%ADD19C,0.700000*%
G04 #@! TD*
G04 #@! TA.AperFunction,ComponentPad*
%ADD20O,2.400000X0.900000*%
G04 #@! TD*
G04 #@! TA.AperFunction,ComponentPad*
%ADD21O,1.700000X0.900000*%
G04 #@! TD*
G04 #@! TA.AperFunction,ViaPad*
%ADD22C,0.800000*%
G04 #@! TD*
G04 #@! TA.AperFunction,Conductor*
%ADD23C,0.500000*%
G04 #@! TD*
G04 #@! TA.AperFunction,Conductor*
%ADD24C,0.250000*%
G04 #@! TD*
G04 APERTURE END LIST*
D10*
X16725000Y18332538D03*
X16725000Y16782538D03*
D11*
X13425000Y30500000D03*
X15075000Y30500000D03*
D12*
X18500000Y13895038D03*
X18500000Y12320038D03*
D10*
X16750000Y2932538D03*
X16750000Y1382538D03*
D13*
X16750000Y27675000D03*
X16750000Y29325000D03*
D11*
X7475000Y9900000D03*
X9125000Y9900000D03*
X13425000Y7407538D03*
X15075000Y7407538D03*
D14*
X13475000Y24500000D03*
X15025000Y24500000D03*
D15*
X22850000Y3757538D03*
D16*
X21350000Y3757538D03*
D15*
X22850000Y26850000D03*
D16*
X21350000Y26850000D03*
D14*
X13475000Y1407538D03*
X15025000Y1407538D03*
D13*
X16750000Y12282538D03*
X16750000Y13932538D03*
D12*
X18500000Y6195038D03*
X18500000Y4620038D03*
D17*
X15125000Y28637500D03*
X14175000Y28637500D03*
X13225000Y28637500D03*
X13225000Y26362500D03*
X15125000Y26362500D03*
D13*
X16750000Y4582538D03*
X16750000Y6232538D03*
D15*
X22825000Y19157538D03*
D16*
X21325000Y19157538D03*
D14*
X13475000Y9107538D03*
X15025000Y9107538D03*
X13450000Y16807538D03*
X15000000Y16807538D03*
D13*
X16725000Y19982538D03*
X16725000Y21632538D03*
D15*
X22850000Y11457538D03*
D16*
X21350000Y11457538D03*
D12*
X18475000Y21595038D03*
X18475000Y20020038D03*
D17*
X15100000Y20945038D03*
X14150000Y20945038D03*
X13200000Y20945038D03*
X13200000Y18670038D03*
X15100000Y18670038D03*
D18*
X9125000Y22100000D03*
X7475000Y22100000D03*
D12*
X18500000Y29287500D03*
X18500000Y27712500D03*
D10*
X16750000Y10632538D03*
X16750000Y9082538D03*
D17*
X15125000Y13245038D03*
X14175000Y13245038D03*
X13225000Y13245038D03*
X13225000Y10970038D03*
X15125000Y10970038D03*
D19*
X8725000Y18975000D03*
X8725000Y18125000D03*
X8725000Y17275000D03*
X8725000Y16425000D03*
X8725000Y15575000D03*
X8725000Y14725000D03*
X8725000Y13875000D03*
X8725000Y13025000D03*
X7375000Y13025000D03*
X7375000Y13875000D03*
X7375000Y14725000D03*
X7375000Y15575000D03*
X7375000Y16425000D03*
X7375000Y17275000D03*
X7375000Y18125000D03*
X7375000Y18975000D03*
D20*
X7745000Y20325000D03*
D21*
X4365000Y20325000D03*
D20*
X7745000Y11675000D03*
D21*
X4365000Y11675000D03*
D10*
X16750000Y26025000D03*
X16750000Y24475000D03*
D11*
X13400000Y22807538D03*
X15050000Y22807538D03*
D17*
X15125000Y5545038D03*
X14175000Y5545038D03*
X13225000Y5545038D03*
X13225000Y3270038D03*
X15125000Y3270038D03*
D11*
X13425000Y15107538D03*
X15075000Y15107538D03*
D22*
X15800000Y17600000D03*
X15800000Y25200000D03*
X15870508Y2175053D03*
X15870508Y9875053D03*
X11000000Y21069774D03*
D23*
X9900000Y17100000D02*
X10200000Y16800000D01*
X9900000Y17975000D02*
X9900000Y17100000D01*
X13061828Y24500000D02*
X13475000Y24500000D01*
X13225000Y26362500D02*
X13225000Y24750000D01*
X10200000Y4000000D02*
X12792462Y1407538D01*
X13225000Y24750000D02*
X13475000Y24500000D01*
X13225000Y1657538D02*
X13475000Y1407538D01*
X11900000Y23338173D02*
X13061828Y24500000D01*
X13225000Y9357538D02*
X13475000Y9107538D01*
X9900000Y17975000D02*
X9900000Y18638172D01*
X13442462Y16800000D02*
X10200000Y16800000D01*
X9900000Y14250000D02*
X9525000Y13875000D01*
X13442462Y16800000D02*
X13450000Y16807538D01*
X11900000Y20638172D02*
X11900000Y23338173D01*
X9386828Y18125000D02*
X9900000Y18638172D01*
X9900000Y18638172D02*
X11900000Y20638172D01*
X10200000Y16800000D02*
X9900000Y16500000D01*
X10200000Y13200000D02*
X9525000Y13875000D01*
X8725000Y18125000D02*
X7375000Y18125000D01*
X13475000Y9107538D02*
X13092462Y9107538D01*
X13225000Y3270038D02*
X13225000Y1657538D01*
X9900000Y16500000D02*
X9900000Y14250000D01*
X12792462Y1407538D02*
X13475000Y1407538D01*
X8725000Y13875000D02*
X9525000Y13875000D01*
X10200000Y13200000D02*
X10200000Y4000000D01*
X11600000Y10600000D02*
X11600000Y11800000D01*
X8725000Y18125000D02*
X9386828Y18125000D01*
X13200000Y18670038D02*
X13200000Y17057538D01*
X8725000Y13875000D02*
X7375000Y13875000D01*
X13200000Y17057538D02*
X13450000Y16807538D01*
X13225000Y10970038D02*
X13225000Y9357538D01*
X11600000Y11800000D02*
X10200000Y13200000D01*
X13092462Y9107538D02*
X11600000Y10600000D01*
D24*
X13425000Y7407538D02*
X14175000Y6657538D01*
D23*
X15957485Y2175053D02*
X16750000Y1382538D01*
D24*
X9125000Y9900000D02*
X9125000Y10295000D01*
D23*
X15025000Y24500000D02*
X15100000Y24500000D01*
D24*
X14175000Y14357538D02*
X14175000Y13245038D01*
D23*
X8725000Y18975000D02*
X7375000Y18975000D01*
X15102993Y1407538D02*
X15870508Y2175053D01*
X15800000Y17600000D02*
X15907538Y17600000D01*
D24*
X14150000Y22057538D02*
X14150000Y20945038D01*
D23*
X15025000Y1407538D02*
X15102993Y1407538D01*
X15870508Y9875053D02*
X15957485Y9875053D01*
X15000000Y16807538D02*
X15007538Y16807538D01*
X15957485Y9875053D02*
X16750000Y9082538D01*
X16025000Y25200000D02*
X16750000Y24475000D01*
D24*
X14175000Y6657538D02*
X14175000Y5545038D01*
D23*
X15025000Y1407538D02*
X14175000Y2257538D01*
D24*
X7475000Y20595000D02*
X7745000Y20325000D01*
D23*
X14175000Y25350000D02*
X14175000Y28637500D01*
X14175000Y2257538D02*
X14175000Y5545038D01*
D24*
X14175000Y29750000D02*
X14175000Y28637500D01*
D23*
X14150000Y17657538D02*
X14150000Y20945038D01*
D24*
X9125000Y10295000D02*
X7745000Y11675000D01*
D23*
X15007538Y16807538D02*
X15800000Y17600000D01*
X7375000Y13025000D02*
X8725000Y13025000D01*
D24*
X13425000Y30500000D02*
X14175000Y29750000D01*
D23*
X14175000Y9957538D02*
X14175000Y13245038D01*
X15907538Y17600000D02*
X16725000Y16782538D01*
X15025000Y24500000D02*
X14175000Y25350000D01*
X15025000Y9107538D02*
X14175000Y9957538D01*
X15000000Y16807538D02*
X14150000Y17657538D01*
X15025000Y9107538D02*
X15102993Y9107538D01*
X15102993Y9107538D02*
X15870508Y9875053D01*
D24*
X7475000Y22100000D02*
X7475000Y20595000D01*
D23*
X15870508Y2175053D02*
X15957485Y2175053D01*
D24*
X16700000Y16807538D02*
X16725000Y16782538D01*
X13425000Y15107538D02*
X14175000Y14357538D01*
X16725000Y1407538D02*
X16750000Y1382538D01*
X16725000Y9107538D02*
X16750000Y9082538D01*
D23*
X15100000Y24500000D02*
X15800000Y25200000D01*
D24*
X13400000Y22807538D02*
X14150000Y22057538D01*
D23*
X15800000Y25200000D02*
X16025000Y25200000D01*
X16412500Y26362500D02*
X15125000Y26362500D01*
D24*
X16750000Y27675000D02*
X16437500Y27675000D01*
X16437500Y27675000D02*
X15125000Y26362500D01*
D23*
X21350000Y26850000D02*
X20525000Y26025000D01*
X20525000Y26025000D02*
X16750000Y26025000D01*
X16750000Y26025000D02*
X16412500Y26362500D01*
D24*
X16725000Y19982538D02*
X16412500Y19982538D01*
D23*
X16725000Y18332538D02*
X16387500Y18670038D01*
D24*
X16412500Y19982538D02*
X15100000Y18670038D01*
D23*
X20500000Y18332538D02*
X16725000Y18332538D01*
X16387500Y18670038D02*
X15100000Y18670038D01*
X21325000Y19157538D02*
X20500000Y18332538D01*
D24*
X16437500Y12282538D02*
X15125000Y10970038D01*
D23*
X16412500Y10970038D02*
X15125000Y10970038D01*
X20525000Y10632538D02*
X16750000Y10632538D01*
D24*
X16750000Y12282538D02*
X16437500Y12282538D01*
D23*
X16750000Y10632538D02*
X16412500Y10970038D01*
X21350000Y11457538D02*
X20525000Y10632538D01*
X20525000Y2932538D02*
X16750000Y2932538D01*
X21350000Y3757538D02*
X20525000Y2932538D01*
X16750000Y2932538D02*
X16412500Y3270038D01*
D24*
X16750000Y4582538D02*
X16437500Y4582538D01*
D23*
X16412500Y3270038D02*
X15125000Y3270038D01*
D24*
X16437500Y4582538D02*
X15125000Y3270038D01*
X18500000Y29287500D02*
X16487500Y31300000D01*
X16487500Y31300000D02*
X13007538Y31300000D01*
X13007538Y31300000D02*
X12500000Y30792462D01*
X12500000Y30792462D02*
X12500000Y29362500D01*
X12500000Y29362500D02*
X13225000Y28637500D01*
X16750000Y29325000D02*
X16887500Y29325000D01*
X16887500Y29325000D02*
X18500000Y27712500D01*
X12475000Y21670038D02*
X13200000Y20945038D01*
X12475000Y23100000D02*
X12475000Y21670038D01*
X12982538Y23607538D02*
X12475000Y23100000D01*
X16462500Y23607538D02*
X12982538Y23607538D01*
X18475000Y21595038D02*
X16462500Y23607538D01*
X16862500Y21632538D02*
X18475000Y20020038D01*
X16725000Y21632538D02*
X16862500Y21632538D01*
X18500000Y13895038D02*
X16487500Y15907538D01*
X13007538Y15907538D02*
X12500000Y15400000D01*
X12500000Y15400000D02*
X12500000Y13970038D01*
X16487500Y15907538D02*
X13007538Y15907538D01*
X12500000Y13970038D02*
X13225000Y13245038D01*
X16750000Y13932538D02*
X16887500Y13932538D01*
X16887500Y13932538D02*
X18500000Y12320038D01*
X13007538Y8207538D02*
X12500000Y7700000D01*
X16487500Y8207538D02*
X13007538Y8207538D01*
X12500000Y7700000D02*
X12500000Y6270038D01*
X12500000Y6270038D02*
X13225000Y5545038D01*
X18500000Y6195038D02*
X16487500Y8207538D01*
X16887500Y6232538D02*
X18500000Y4620038D01*
X16750000Y6232538D02*
X16887500Y6232538D01*
X10600000Y22100000D02*
X9125000Y22100000D01*
X11000000Y21700000D02*
X10600000Y22100000D01*
X11000000Y21069774D02*
X11000000Y21700000D01*
X6220000Y11155000D02*
X6220000Y14120000D01*
X6825000Y14725000D02*
X7375000Y14725000D01*
X7475000Y9900000D02*
X6220000Y11155000D01*
X6220000Y14120000D02*
X6825000Y14725000D01*
X15125000Y28637500D02*
X15125000Y30450000D01*
X15125000Y30450000D02*
X15075000Y30500000D01*
X15100000Y20945038D02*
X15100000Y22757538D01*
X15100000Y22757538D02*
X15050000Y22807538D01*
X15125000Y13245038D02*
X15125000Y15057538D01*
X15125000Y15057538D02*
X15075000Y15107538D01*
X15125000Y7357538D02*
X15075000Y7407538D01*
X15125000Y5545038D02*
X15125000Y7357538D01*
M02*
