M48
; DRILL file {KiCad 7.0.1} date Thu Mar  7 21:27:57 2024
; FORMAT={-:-/ absolute / metric / decimal}
; #@! TF.CreationDate,2024-03-07T21:27:57+09:00
; #@! TF.GenerationSoftware,Kicad,Pcbnew,7.0.1
; #@! TF.FileFunction,MixedPlating,1,2
FMAT,2
METRIC
; #@! TA.AperFunction,Plated,PTH,ViaDrill
T1C0.400
; #@! TA.AperFunction,Plated,PTH,ComponentDrill
T2C0.400
; #@! TA.AperFunction,Plated,PTH,ComponentDrill
T3C0.600
; #@! TA.AperFunction,Plated,PTH,ComponentDrill
T4C0.730
%
G90
G05
T1
X11.0Y21.07
X15.8Y25.2
X15.8Y17.6
X15.871Y9.875
X15.871Y2.175
T2
X7.375Y18.975
X7.375Y18.125
X7.375Y17.275
X7.375Y16.425
X7.375Y15.575
X7.375Y14.725
X7.375Y13.875
X7.375Y13.025
X8.725Y18.975
X8.725Y18.125
X8.725Y17.275
X8.725Y16.425
X8.725Y15.575
X8.725Y14.725
X8.725Y13.875
X8.725Y13.025
T4
X21.325Y19.158
X21.35Y26.85
X21.35Y11.458
X21.35Y3.758
X22.825Y19.158
X22.85Y26.85
X22.85Y11.458
X22.85Y3.758
T3
G00X4.765Y20.325
M15
G01X3.965Y20.325
M16
G05
G00X4.765Y11.675
M15
G01X3.965Y11.675
M16
G05
G00X8.495Y20.325
M15
G01X6.995Y20.325
M16
G05
G00X8.495Y11.675
M15
G01X6.995Y11.675
M16
G05
T0
M30
