G04 #@! TF.GenerationSoftware,KiCad,Pcbnew,7.0.1*
G04 #@! TF.CreationDate,2024-03-07T21:27:49+09:00*
G04 #@! TF.ProjectId,MP2603-array,4d503236-3033-42d6-9172-7261792e6b69,rev?*
G04 #@! TF.SameCoordinates,PX94c5f00PY6bc3e40*
G04 #@! TF.FileFunction,Copper,L2,Bot*
G04 #@! TF.FilePolarity,Positive*
%FSLAX46Y46*%
G04 Gerber Fmt 4.6, Leading zero omitted, Abs format (unit mm)*
G04 Created by KiCad (PCBNEW 7.0.1) date 2024-03-07 21:27:49*
%MOMM*%
%LPD*%
G01*
G04 APERTURE LIST*
G04 Aperture macros list*
%AMRoundRect*
0 Rectangle with rounded corners*
0 $1 Rounding radius*
0 $2 $3 $4 $5 $6 $7 $8 $9 X,Y pos of 4 corners*
0 Add a 4 corners polygon primitive as box body*
4,1,4,$2,$3,$4,$5,$6,$7,$8,$9,$2,$3,0*
0 Add four circle primitives for the rounded corners*
1,1,$1+$1,$2,$3*
1,1,$1+$1,$4,$5*
1,1,$1+$1,$6,$7*
1,1,$1+$1,$8,$9*
0 Add four rect primitives between the rounded corners*
20,1,$1+$1,$2,$3,$4,$5,0*
20,1,$1+$1,$4,$5,$6,$7,0*
20,1,$1+$1,$6,$7,$8,$9,0*
20,1,$1+$1,$8,$9,$2,$3,0*%
G04 Aperture macros list end*
G04 #@! TA.AperFunction,ComponentPad*
%ADD10RoundRect,0.250000X0.265000X0.615000X-0.265000X0.615000X-0.265000X-0.615000X0.265000X-0.615000X0*%
G04 #@! TD*
G04 #@! TA.AperFunction,ComponentPad*
%ADD11O,1.030000X1.730000*%
G04 #@! TD*
G04 #@! TA.AperFunction,ComponentPad*
%ADD12C,0.700000*%
G04 #@! TD*
G04 #@! TA.AperFunction,ComponentPad*
%ADD13O,2.400000X0.900000*%
G04 #@! TD*
G04 #@! TA.AperFunction,ComponentPad*
%ADD14O,1.700000X0.900000*%
G04 #@! TD*
G04 #@! TA.AperFunction,ViaPad*
%ADD15C,0.800000*%
G04 #@! TD*
G04 #@! TA.AperFunction,Conductor*
%ADD16C,0.500000*%
G04 #@! TD*
G04 #@! TA.AperFunction,Conductor*
%ADD17C,0.250000*%
G04 #@! TD*
G04 APERTURE END LIST*
D10*
X22850000Y3757538D03*
D11*
X21350000Y3757538D03*
D10*
X22850000Y26850000D03*
D11*
X21350000Y26850000D03*
D10*
X22825000Y19157538D03*
D11*
X21325000Y19157538D03*
D10*
X22850000Y11457538D03*
D11*
X21350000Y11457538D03*
D12*
X8725000Y18975000D03*
X8725000Y18125000D03*
X8725000Y17275000D03*
X8725000Y16425000D03*
X8725000Y15575000D03*
X8725000Y14725000D03*
X8725000Y13875000D03*
X8725000Y13025000D03*
X7375000Y13025000D03*
X7375000Y13875000D03*
X7375000Y14725000D03*
X7375000Y15575000D03*
X7375000Y16425000D03*
X7375000Y17275000D03*
X7375000Y18125000D03*
X7375000Y18975000D03*
D13*
X7745000Y20325000D03*
D14*
X4365000Y20325000D03*
D13*
X7745000Y11675000D03*
D14*
X4365000Y11675000D03*
D15*
X15800000Y17600000D03*
X15800000Y25200000D03*
X15870508Y2175053D03*
X15870508Y9875053D03*
X11000000Y21069774D03*
D16*
X7375000Y13875000D02*
X8725000Y13875000D01*
X7375000Y18125000D02*
X8725000Y18125000D01*
X7375000Y13025000D02*
X6275000Y13025000D01*
X7375000Y18975000D02*
X6325000Y18975000D01*
X6275000Y13025000D02*
X6200000Y13100000D01*
X7375000Y18975000D02*
X8725000Y18975000D01*
X6325000Y18975000D02*
X6300000Y19000000D01*
X8725000Y13025000D02*
X7375000Y13025000D01*
D17*
X9375000Y17275000D02*
X8725000Y17275000D01*
X11000000Y18900000D02*
X9375000Y17275000D01*
X11000000Y21069774D02*
X11000000Y18900000D01*
G04 #@! TA.AperFunction,Conductor*
G36*
X23004418Y31699184D02*
G01*
X23233020Y31682835D01*
X23250529Y31680317D01*
X23470144Y31632542D01*
X23487103Y31627563D01*
X23697694Y31549017D01*
X23713777Y31541673D01*
X23911036Y31433960D01*
X23925919Y31424395D01*
X24105836Y31289711D01*
X24119207Y31278125D01*
X24278124Y31119208D01*
X24289710Y31105837D01*
X24424394Y30925920D01*
X24433959Y30911037D01*
X24541669Y30713783D01*
X24549019Y30697689D01*
X24627559Y30487113D01*
X24632543Y30470138D01*
X24680316Y30250530D01*
X24682834Y30233018D01*
X24699184Y30004418D01*
X24699500Y29995572D01*
X24699500Y2503751D01*
X24699274Y2496264D01*
X24683915Y2242365D01*
X24682110Y2227501D01*
X24636938Y1981002D01*
X24633354Y1966462D01*
X24558800Y1727212D01*
X24553491Y1713212D01*
X24450638Y1484681D01*
X24443679Y1471422D01*
X24314033Y1256961D01*
X24305527Y1244638D01*
X24150972Y1047364D01*
X24141042Y1036156D01*
X23963844Y858958D01*
X23952636Y849028D01*
X23755362Y694473D01*
X23743039Y685967D01*
X23528578Y556321D01*
X23515319Y549362D01*
X23286788Y446509D01*
X23272788Y441200D01*
X23033538Y366646D01*
X23018998Y363062D01*
X22772499Y317890D01*
X22757635Y316085D01*
X22503736Y300726D01*
X22496249Y300500D01*
X2004428Y300500D01*
X1995582Y300816D01*
X1766982Y317166D01*
X1749470Y319684D01*
X1529862Y367457D01*
X1512887Y372441D01*
X1302311Y450981D01*
X1286217Y458331D01*
X1088963Y566041D01*
X1074080Y575606D01*
X894163Y710290D01*
X880792Y721876D01*
X721875Y880793D01*
X710289Y894164D01*
X575605Y1074081D01*
X566040Y1088964D01*
X458330Y1286218D01*
X450983Y1302306D01*
X372437Y1512897D01*
X367458Y1529856D01*
X319683Y1749471D01*
X317165Y1766983D01*
X300816Y1995582D01*
X300500Y2004428D01*
X300500Y3357646D01*
X20334500Y3357646D01*
X20349192Y3208467D01*
X20349193Y3208465D01*
X20407260Y3017042D01*
X20501557Y2840626D01*
X20515681Y2823416D01*
X20628457Y2685996D01*
X20705772Y2622546D01*
X20783088Y2559095D01*
X20959504Y2464798D01*
X21150927Y2406731D01*
X21350000Y2387124D01*
X21549073Y2406731D01*
X21740496Y2464798D01*
X21916912Y2559095D01*
X21934872Y2573835D01*
X21989341Y2599597D01*
X22049528Y2596641D01*
X22101215Y2565661D01*
X22116654Y2550222D01*
X22265877Y2458181D01*
X22432303Y2403032D01*
X22535021Y2392538D01*
X22600000Y2392538D01*
X22600000Y3507538D01*
X23100000Y3507538D01*
X23100000Y2392539D01*
X23164979Y2392539D01*
X23267695Y2403032D01*
X23434122Y2458181D01*
X23583345Y2550222D01*
X23707316Y2674193D01*
X23799357Y2823416D01*
X23854506Y2989842D01*
X23865000Y3092559D01*
X23865000Y3507538D01*
X23100000Y3507538D01*
X22600000Y3507538D01*
X22600000Y5122537D01*
X22535021Y5122537D01*
X22432304Y5112045D01*
X22265879Y5056897D01*
X22116654Y4964854D01*
X22101212Y4949412D01*
X22049526Y4918435D01*
X21989341Y4915480D01*
X21934869Y4941244D01*
X21916911Y4955982D01*
X21740498Y5050277D01*
X21740497Y5050278D01*
X21740496Y5050278D01*
X21644784Y5079312D01*
X21549071Y5108346D01*
X21404971Y5122538D01*
X23100000Y5122538D01*
X23100000Y4007538D01*
X23864999Y4007538D01*
X23864999Y4422517D01*
X23854506Y4525234D01*
X23799357Y4691661D01*
X23707316Y4840884D01*
X23583345Y4964855D01*
X23434122Y5056896D01*
X23267696Y5112045D01*
X23164979Y5122538D01*
X23100000Y5122538D01*
X21404971Y5122538D01*
X21350000Y5127952D01*
X21150928Y5108346D01*
X20959501Y5050277D01*
X20783089Y4955982D01*
X20628457Y4829081D01*
X20501556Y4674449D01*
X20407261Y4498037D01*
X20349192Y4306610D01*
X20334500Y4157430D01*
X20334500Y3357646D01*
X300500Y3357646D01*
X300500Y11425000D01*
X3044529Y11425000D01*
X3107685Y11254470D01*
X3209890Y11090499D01*
X3343003Y10950465D01*
X3501585Y10840088D01*
X3679137Y10763894D01*
X3868395Y10725000D01*
X4115000Y10725000D01*
X4115000Y11425000D01*
X4615000Y11425000D01*
X4615000Y10725000D01*
X4813173Y10725000D01*
X4957222Y10739649D01*
X5141569Y10797489D01*
X5310503Y10891254D01*
X5457104Y11017106D01*
X5575368Y11169891D01*
X5660458Y11343359D01*
X5681597Y11425000D01*
X6074529Y11425000D01*
X6137685Y11254470D01*
X6239890Y11090499D01*
X6373003Y10950465D01*
X6531585Y10840088D01*
X6709137Y10763894D01*
X6898395Y10725000D01*
X7495000Y10725000D01*
X7495000Y11425000D01*
X7995000Y11425000D01*
X7995000Y10725000D01*
X8543173Y10725000D01*
X8687222Y10739649D01*
X8871569Y10797489D01*
X9040503Y10891254D01*
X9187104Y11017106D01*
X9218484Y11057646D01*
X20334500Y11057646D01*
X20349192Y10908467D01*
X20349193Y10908465D01*
X20407260Y10717042D01*
X20501557Y10540626D01*
X20515681Y10523416D01*
X20628457Y10385996D01*
X20705772Y10322546D01*
X20783088Y10259095D01*
X20959504Y10164798D01*
X21150927Y10106731D01*
X21350000Y10087124D01*
X21549073Y10106731D01*
X21740496Y10164798D01*
X21916912Y10259095D01*
X21934872Y10273835D01*
X21989341Y10299597D01*
X22049528Y10296641D01*
X22101215Y10265661D01*
X22116654Y10250222D01*
X22265877Y10158181D01*
X22432303Y10103032D01*
X22535021Y10092538D01*
X22600000Y10092538D01*
X22600000Y11207538D01*
X23100000Y11207538D01*
X23100000Y10092539D01*
X23164979Y10092539D01*
X23267695Y10103032D01*
X23434122Y10158181D01*
X23583345Y10250222D01*
X23707316Y10374193D01*
X23799357Y10523416D01*
X23854506Y10689842D01*
X23865000Y10792559D01*
X23865000Y11207538D01*
X23100000Y11207538D01*
X22600000Y11207538D01*
X22600000Y12822537D01*
X22535021Y12822537D01*
X22432304Y12812045D01*
X22265879Y12756897D01*
X22116654Y12664854D01*
X22101212Y12649412D01*
X22049526Y12618435D01*
X21989341Y12615480D01*
X21934869Y12641244D01*
X21916911Y12655982D01*
X21740498Y12750277D01*
X21740497Y12750278D01*
X21740496Y12750278D01*
X21644784Y12779312D01*
X21549071Y12808346D01*
X21404978Y12822538D01*
X23100000Y12822538D01*
X23100000Y11707538D01*
X23864999Y11707538D01*
X23864999Y12122517D01*
X23854506Y12225234D01*
X23799357Y12391661D01*
X23707316Y12540884D01*
X23583345Y12664855D01*
X23434122Y12756896D01*
X23267696Y12812045D01*
X23164979Y12822538D01*
X23100000Y12822538D01*
X21404978Y12822538D01*
X21371747Y12825811D01*
X21350000Y12827952D01*
X21349999Y12827952D01*
X21150928Y12808346D01*
X20959501Y12750277D01*
X20783089Y12655982D01*
X20628457Y12529081D01*
X20501556Y12374449D01*
X20407261Y12198037D01*
X20349192Y12006610D01*
X20334500Y11857430D01*
X20334500Y11057646D01*
X9218484Y11057646D01*
X9305368Y11169891D01*
X9390458Y11343359D01*
X9411597Y11425000D01*
X7995000Y11425000D01*
X7495000Y11425000D01*
X6074529Y11425000D01*
X5681597Y11425000D01*
X4615000Y11425000D01*
X4115000Y11425000D01*
X3044529Y11425000D01*
X300500Y11425000D01*
X300500Y11925000D01*
X3048403Y11925000D01*
X4115000Y11925000D01*
X4115000Y12625000D01*
X4615000Y12625000D01*
X4615000Y11925000D01*
X5685471Y11925000D01*
X5685471Y11925001D01*
X5622314Y12095531D01*
X5520109Y12259502D01*
X5386996Y12399536D01*
X5228414Y12509913D01*
X5050862Y12586107D01*
X4861605Y12625000D01*
X4615000Y12625000D01*
X4115000Y12625000D01*
X3916827Y12625000D01*
X3772777Y12610352D01*
X3588430Y12552512D01*
X3419496Y12458747D01*
X3272895Y12332895D01*
X3154631Y12180110D01*
X3069541Y12006642D01*
X3048403Y11925000D01*
X300500Y11925000D01*
X300500Y20075000D01*
X3044529Y20075000D01*
X3107685Y19904470D01*
X3209890Y19740499D01*
X3343003Y19600465D01*
X3501585Y19490088D01*
X3679137Y19413894D01*
X3868395Y19375000D01*
X4115000Y19375000D01*
X4115000Y20075000D01*
X4615000Y20075000D01*
X4615000Y19375000D01*
X4813173Y19375000D01*
X4957222Y19389649D01*
X5141569Y19447489D01*
X5310503Y19541254D01*
X5457104Y19667106D01*
X5575368Y19819891D01*
X5660458Y19993359D01*
X5681597Y20075000D01*
X6074529Y20075000D01*
X6137685Y19904470D01*
X6239890Y19740499D01*
X6373003Y19600465D01*
X6541935Y19482884D01*
X6541259Y19481913D01*
X6584237Y19446671D01*
X6605973Y19381299D01*
X6594825Y19336134D01*
X6598236Y19335025D01*
X6538995Y19152700D01*
X6520318Y18975001D01*
X6538995Y18797301D01*
X6594209Y18627368D01*
X6602794Y18612498D01*
X6619406Y18550501D01*
X6602795Y18488504D01*
X6593750Y18472838D01*
X6538503Y18302805D01*
X6519815Y18125000D01*
X6538503Y17947196D01*
X6593749Y17777165D01*
X6602505Y17762000D01*
X6619118Y17700000D01*
X6602505Y17638000D01*
X6593749Y17622836D01*
X6538503Y17452805D01*
X6519815Y17275000D01*
X6538503Y17097196D01*
X6593749Y16927167D01*
X6602504Y16912003D01*
X6619118Y16850003D01*
X6602506Y16788003D01*
X6593750Y16772838D01*
X6538503Y16602805D01*
X6519815Y16425000D01*
X6538503Y16247196D01*
X6593749Y16077165D01*
X6602505Y16062000D01*
X6619118Y16000000D01*
X6602505Y15938000D01*
X6593749Y15922836D01*
X6538503Y15752805D01*
X6519815Y15575000D01*
X6538503Y15397196D01*
X6593749Y15227167D01*
X6602504Y15212003D01*
X6619118Y15150003D01*
X6602506Y15088003D01*
X6593750Y15072838D01*
X6538503Y14902805D01*
X6519815Y14725001D01*
X6538503Y14547196D01*
X6593749Y14377165D01*
X6602505Y14362000D01*
X6619118Y14300000D01*
X6602505Y14238000D01*
X6593749Y14222836D01*
X6538503Y14052805D01*
X6519815Y13875001D01*
X6538503Y13697196D01*
X6593750Y13527163D01*
X6602794Y13511498D01*
X6619406Y13449500D01*
X6602794Y13387502D01*
X6594209Y13372633D01*
X6538995Y13202700D01*
X6520318Y13025001D01*
X6538995Y12847301D01*
X6598236Y12664975D01*
X6596263Y12664335D01*
X6608233Y12619146D01*
X6590916Y12556642D01*
X6544413Y12511430D01*
X6449495Y12458746D01*
X6302895Y12332895D01*
X6184631Y12180110D01*
X6099541Y12006642D01*
X6078403Y11925000D01*
X9415471Y11925000D01*
X9415471Y11925001D01*
X9352314Y12095530D01*
X9250111Y12259498D01*
X9234533Y12275886D01*
X9212545Y12276164D01*
X9209641Y12274486D01*
X9145453Y12274486D01*
X9089866Y12306580D01*
X8583628Y12812819D01*
X8553378Y12862182D01*
X8548836Y12919898D01*
X8570991Y12973385D01*
X8615014Y13010985D01*
X8671309Y13024500D01*
X8814391Y13024500D01*
X8966806Y13056897D01*
X9027803Y13054501D01*
X9080266Y13023288D01*
X9476651Y12626903D01*
X9505790Y12677371D01*
X9561004Y12847301D01*
X9579681Y13025001D01*
X9561004Y13202700D01*
X9505792Y13372628D01*
X9497206Y13387499D01*
X9480593Y13449500D01*
X9497206Y13511501D01*
X9506250Y13527165D01*
X9561497Y13697197D01*
X9580185Y13875000D01*
X9561497Y14052803D01*
X9506250Y14222835D01*
X9506249Y14222837D01*
X9497494Y14238001D01*
X9480881Y14300003D01*
X9497495Y14362002D01*
X9506250Y14377165D01*
X9561497Y14547197D01*
X9580185Y14725000D01*
X9561497Y14902803D01*
X9506250Y15072835D01*
X9497494Y15088000D01*
X9480881Y15150000D01*
X9497495Y15212002D01*
X9497496Y15212003D01*
X9506250Y15227165D01*
X9561497Y15397197D01*
X9580185Y15575000D01*
X9561497Y15752803D01*
X9506250Y15922835D01*
X9497494Y15938000D01*
X9480881Y16000000D01*
X9497495Y16062002D01*
X9506250Y16077165D01*
X9561497Y16247197D01*
X9580185Y16425000D01*
X9564296Y16576165D01*
X9576838Y16644836D01*
X9624494Y16695853D01*
X9625386Y16696382D01*
X9625390Y16696382D01*
X9642634Y16706581D01*
X9660102Y16715138D01*
X9678732Y16722514D01*
X9714064Y16748186D01*
X9723830Y16754600D01*
X9725622Y16755660D01*
X9761420Y16776830D01*
X9775585Y16790996D01*
X9790373Y16803627D01*
X9806587Y16815406D01*
X9834438Y16849074D01*
X9842279Y16857691D01*
X11383788Y18399200D01*
X11399885Y18412094D01*
X11401873Y18414213D01*
X11401877Y18414214D01*
X11447948Y18463277D01*
X11450566Y18465977D01*
X11470120Y18485529D01*
X11472581Y18488702D01*
X11480156Y18497573D01*
X11510062Y18529418D01*
X11519712Y18546973D01*
X11530400Y18563243D01*
X11542671Y18579062D01*
X11542673Y18579064D01*
X11560026Y18619168D01*
X11565157Y18629638D01*
X11586197Y18667908D01*
X11591175Y18687301D01*
X11597481Y18705718D01*
X11599018Y18709272D01*
X11605438Y18724104D01*
X11610750Y18757646D01*
X20309500Y18757646D01*
X20324192Y18608467D01*
X20333112Y18579062D01*
X20382260Y18417042D01*
X20476557Y18240626D01*
X20490681Y18223416D01*
X20603457Y18085996D01*
X20680773Y18022546D01*
X20758088Y17959095D01*
X20934504Y17864798D01*
X21125927Y17806731D01*
X21325000Y17787124D01*
X21524073Y17806731D01*
X21715496Y17864798D01*
X21891912Y17959095D01*
X21909872Y17973835D01*
X21964341Y17999597D01*
X22024528Y17996641D01*
X22076215Y17965661D01*
X22091654Y17950222D01*
X22240877Y17858181D01*
X22407303Y17803032D01*
X22510021Y17792538D01*
X22575000Y17792538D01*
X22575000Y18907538D01*
X23075000Y18907538D01*
X23075000Y17792539D01*
X23139979Y17792539D01*
X23242695Y17803032D01*
X23409122Y17858181D01*
X23558345Y17950222D01*
X23682316Y18074193D01*
X23774357Y18223416D01*
X23829506Y18389842D01*
X23840000Y18492559D01*
X23840000Y18907538D01*
X23075000Y18907538D01*
X22575000Y18907538D01*
X22575000Y20522537D01*
X22510021Y20522537D01*
X22407304Y20512045D01*
X22240879Y20456897D01*
X22091654Y20364854D01*
X22076212Y20349412D01*
X22024526Y20318435D01*
X21964341Y20315480D01*
X21909869Y20341244D01*
X21891911Y20355982D01*
X21715498Y20450277D01*
X21715497Y20450278D01*
X21715496Y20450278D01*
X21619784Y20479312D01*
X21524071Y20508346D01*
X21379971Y20522538D01*
X23075000Y20522538D01*
X23075000Y19407538D01*
X23839999Y19407538D01*
X23839999Y19822517D01*
X23829506Y19925234D01*
X23774357Y20091661D01*
X23682316Y20240884D01*
X23558345Y20364855D01*
X23409122Y20456896D01*
X23242696Y20512045D01*
X23139979Y20522538D01*
X23075000Y20522538D01*
X21379971Y20522538D01*
X21325000Y20527952D01*
X21125928Y20508346D01*
X20934501Y20450277D01*
X20758089Y20355982D01*
X20603457Y20229081D01*
X20476556Y20074449D01*
X20382261Y19898037D01*
X20324192Y19706610D01*
X20309500Y19557430D01*
X20309500Y18757646D01*
X11610750Y18757646D01*
X11612272Y18767255D01*
X11614635Y18778669D01*
X11625500Y18820981D01*
X11625500Y18841016D01*
X11627027Y18860415D01*
X11629416Y18875500D01*
X11630160Y18880196D01*
X11626050Y18923675D01*
X11625500Y18935344D01*
X11625500Y20371087D01*
X11633736Y20415525D01*
X11657347Y20454057D01*
X11732533Y20537558D01*
X11827179Y20701490D01*
X11885674Y20881518D01*
X11905460Y21069774D01*
X11885674Y21258030D01*
X11827179Y21438058D01*
X11827179Y21438059D01*
X11732533Y21601991D01*
X11605870Y21742664D01*
X11452730Y21853926D01*
X11279802Y21930919D01*
X11094648Y21970274D01*
X11094646Y21970274D01*
X10905354Y21970274D01*
X10905352Y21970274D01*
X10720197Y21930919D01*
X10547269Y21853926D01*
X10394129Y21742664D01*
X10267466Y21601991D01*
X10172820Y21438059D01*
X10114326Y21258032D01*
X10094540Y21069774D01*
X10114326Y20881517D01*
X10172820Y20701490D01*
X10267464Y20537561D01*
X10267467Y20537558D01*
X10342652Y20454057D01*
X10366264Y20415525D01*
X10374500Y20371087D01*
X10374500Y19210452D01*
X10365061Y19162999D01*
X10338181Y19122771D01*
X9708815Y18493408D01*
X9651971Y18460985D01*
X9586539Y18462013D01*
X9530742Y18496205D01*
X9500120Y18554039D01*
X9503203Y18619407D01*
X9561004Y18797301D01*
X9579681Y18975001D01*
X9561004Y19152700D01*
X9505791Y19322629D01*
X9476651Y19373100D01*
X9080266Y18976714D01*
X9027803Y18945501D01*
X8966805Y18943105D01*
X8814394Y18975500D01*
X8814391Y18975500D01*
X8671309Y18975500D01*
X8615014Y18989015D01*
X8570991Y19026615D01*
X8548836Y19080102D01*
X8553378Y19137818D01*
X8583628Y19187181D01*
X9089867Y19693421D01*
X9145454Y19725515D01*
X9209642Y19725515D01*
X9211200Y19724616D01*
X9232673Y19725977D01*
X9305368Y19819891D01*
X9390458Y19993360D01*
X9411597Y20075000D01*
X6074529Y20075000D01*
X5681597Y20075000D01*
X4615000Y20075000D01*
X4115000Y20075000D01*
X3044529Y20075000D01*
X300500Y20075000D01*
X300500Y20575000D01*
X3048403Y20575000D01*
X4115000Y20575000D01*
X4115000Y21275000D01*
X4615000Y21275000D01*
X4615000Y20575000D01*
X5685471Y20575000D01*
X6078403Y20575000D01*
X7495000Y20575000D01*
X7495000Y21275000D01*
X7995000Y21275000D01*
X7995000Y20575000D01*
X9415471Y20575000D01*
X9415471Y20575001D01*
X9352314Y20745531D01*
X9250109Y20909502D01*
X9116996Y21049536D01*
X8958414Y21159913D01*
X8780862Y21236107D01*
X8591605Y21275000D01*
X7995000Y21275000D01*
X7495000Y21275000D01*
X6946827Y21275000D01*
X6802777Y21260352D01*
X6618430Y21202512D01*
X6449496Y21108747D01*
X6302895Y20982895D01*
X6184631Y20830110D01*
X6099541Y20656642D01*
X6078403Y20575000D01*
X5685471Y20575000D01*
X5685471Y20575001D01*
X5622314Y20745531D01*
X5520109Y20909502D01*
X5386996Y21049536D01*
X5228414Y21159913D01*
X5050862Y21236107D01*
X4861605Y21275000D01*
X4615000Y21275000D01*
X4115000Y21275000D01*
X3916827Y21275000D01*
X3772777Y21260352D01*
X3588430Y21202512D01*
X3419496Y21108747D01*
X3272895Y20982895D01*
X3154631Y20830110D01*
X3069541Y20656642D01*
X3048403Y20575000D01*
X300500Y20575000D01*
X300500Y26450108D01*
X20334500Y26450108D01*
X20349192Y26300929D01*
X20349193Y26300927D01*
X20407260Y26109504D01*
X20501557Y25933088D01*
X20515681Y25915878D01*
X20628457Y25778458D01*
X20705773Y25715008D01*
X20783088Y25651557D01*
X20959504Y25557260D01*
X21150927Y25499193D01*
X21350000Y25479586D01*
X21549073Y25499193D01*
X21740496Y25557260D01*
X21916912Y25651557D01*
X21934872Y25666297D01*
X21989341Y25692059D01*
X22049528Y25689103D01*
X22101215Y25658123D01*
X22116654Y25642684D01*
X22265877Y25550643D01*
X22432303Y25495494D01*
X22535021Y25485000D01*
X22600000Y25485000D01*
X22600000Y26600000D01*
X23100000Y26600000D01*
X23100000Y25485001D01*
X23164979Y25485001D01*
X23267695Y25495494D01*
X23434122Y25550643D01*
X23583345Y25642684D01*
X23707316Y25766655D01*
X23799357Y25915878D01*
X23854506Y26082304D01*
X23865000Y26185021D01*
X23865000Y26600000D01*
X23100000Y26600000D01*
X22600000Y26600000D01*
X22600000Y28214999D01*
X22535021Y28214999D01*
X22432304Y28204507D01*
X22265879Y28149359D01*
X22116654Y28057316D01*
X22101212Y28041874D01*
X22049526Y28010897D01*
X21989341Y28007942D01*
X21934869Y28033706D01*
X21916911Y28048444D01*
X21740498Y28142739D01*
X21740497Y28142740D01*
X21740496Y28142740D01*
X21644784Y28171774D01*
X21549071Y28200808D01*
X21404971Y28215000D01*
X23100000Y28215000D01*
X23100000Y27100000D01*
X23864999Y27100000D01*
X23864999Y27514979D01*
X23854506Y27617696D01*
X23799357Y27784123D01*
X23707316Y27933346D01*
X23583345Y28057317D01*
X23434122Y28149358D01*
X23267696Y28204507D01*
X23164979Y28215000D01*
X23100000Y28215000D01*
X21404971Y28215000D01*
X21350000Y28220414D01*
X21150928Y28200808D01*
X20959501Y28142739D01*
X20783089Y28048444D01*
X20628457Y27921543D01*
X20501556Y27766911D01*
X20407261Y27590499D01*
X20349192Y27399072D01*
X20334500Y27249892D01*
X20334500Y26450108D01*
X300500Y26450108D01*
X300500Y29995572D01*
X300816Y30004418D01*
X317165Y30233018D01*
X319683Y30250530D01*
X367459Y30470149D01*
X372436Y30487100D01*
X450985Y30697701D01*
X458325Y30713773D01*
X566044Y30911044D01*
X575600Y30925914D01*
X710294Y31105844D01*
X721868Y31119201D01*
X880799Y31278132D01*
X894156Y31289706D01*
X1074086Y31424400D01*
X1088956Y31433956D01*
X1286227Y31541675D01*
X1302299Y31549015D01*
X1512900Y31627564D01*
X1529851Y31632541D01*
X1749472Y31680318D01*
X1766977Y31682835D01*
X1995581Y31699184D01*
X2004428Y31699500D01*
X2047595Y31699500D01*
X22952405Y31699500D01*
X22995572Y31699500D01*
X23004418Y31699184D01*
G37*
G04 #@! TD.AperFunction*
M02*
