G04 #@! TF.GenerationSoftware,KiCad,Pcbnew,7.0.1*
G04 #@! TF.CreationDate,2024-03-07T21:27:50+09:00*
G04 #@! TF.ProjectId,MP2603-array,4d503236-3033-42d6-9172-7261792e6b69,rev?*
G04 #@! TF.SameCoordinates,PX94c5f00PY6bc3e40*
G04 #@! TF.FileFunction,Soldermask,Top*
G04 #@! TF.FilePolarity,Negative*
%FSLAX46Y46*%
G04 Gerber Fmt 4.6, Leading zero omitted, Abs format (unit mm)*
G04 Created by KiCad (PCBNEW 7.0.1) date 2024-03-07 21:27:50*
%MOMM*%
%LPD*%
G01*
G04 APERTURE LIST*
G04 Aperture macros list*
%AMRoundRect*
0 Rectangle with rounded corners*
0 $1 Rounding radius*
0 $2 $3 $4 $5 $6 $7 $8 $9 X,Y pos of 4 corners*
0 Add a 4 corners polygon primitive as box body*
4,1,4,$2,$3,$4,$5,$6,$7,$8,$9,$2,$3,0*
0 Add four circle primitives for the rounded corners*
1,1,$1+$1,$2,$3*
1,1,$1+$1,$4,$5*
1,1,$1+$1,$6,$7*
1,1,$1+$1,$8,$9*
0 Add four rect primitives between the rounded corners*
20,1,$1+$1,$2,$3,$4,$5,0*
20,1,$1+$1,$4,$5,$6,$7,0*
20,1,$1+$1,$6,$7,$8,$9,0*
20,1,$1+$1,$8,$9,$2,$3,0*%
G04 Aperture macros list end*
%ADD10RoundRect,0.225000X-0.250000X0.225000X-0.250000X-0.225000X0.250000X-0.225000X0.250000X0.225000X0*%
%ADD11RoundRect,0.200000X-0.200000X-0.275000X0.200000X-0.275000X0.200000X0.275000X-0.200000X0.275000X0*%
%ADD12RoundRect,0.218750X-0.256250X0.218750X-0.256250X-0.218750X0.256250X-0.218750X0.256250X0.218750X0*%
%ADD13RoundRect,0.200000X0.275000X-0.200000X0.275000X0.200000X-0.275000X0.200000X-0.275000X-0.200000X0*%
%ADD14RoundRect,0.225000X-0.225000X-0.250000X0.225000X-0.250000X0.225000X0.250000X-0.225000X0.250000X0*%
%ADD15RoundRect,0.250000X0.265000X0.615000X-0.265000X0.615000X-0.265000X-0.615000X0.265000X-0.615000X0*%
%ADD16O,1.030000X1.730000*%
%ADD17RoundRect,0.150000X-0.150000X0.512500X-0.150000X-0.512500X0.150000X-0.512500X0.150000X0.512500X0*%
%ADD18RoundRect,0.200000X0.200000X0.275000X-0.200000X0.275000X-0.200000X-0.275000X0.200000X-0.275000X0*%
%ADD19C,0.700000*%
%ADD20O,2.400000X0.900000*%
%ADD21O,1.700000X0.900000*%
G04 APERTURE END LIST*
D10*
X16725000Y18332538D03*
X16725000Y16782538D03*
D11*
X13425000Y30500000D03*
X15075000Y30500000D03*
D12*
X18500000Y13895038D03*
X18500000Y12320038D03*
D10*
X16750000Y2932538D03*
X16750000Y1382538D03*
D13*
X16750000Y27675000D03*
X16750000Y29325000D03*
D11*
X7475000Y9900000D03*
X9125000Y9900000D03*
X13425000Y7407538D03*
X15075000Y7407538D03*
D14*
X13475000Y24500000D03*
X15025000Y24500000D03*
D15*
X22850000Y3757538D03*
D16*
X21350000Y3757538D03*
D15*
X22850000Y26850000D03*
D16*
X21350000Y26850000D03*
D14*
X13475000Y1407538D03*
X15025000Y1407538D03*
D13*
X16750000Y12282538D03*
X16750000Y13932538D03*
D12*
X18500000Y6195038D03*
X18500000Y4620038D03*
D17*
X15125000Y28637500D03*
X14175000Y28637500D03*
X13225000Y28637500D03*
X13225000Y26362500D03*
X15125000Y26362500D03*
D13*
X16750000Y4582538D03*
X16750000Y6232538D03*
D15*
X22825000Y19157538D03*
D16*
X21325000Y19157538D03*
D14*
X13475000Y9107538D03*
X15025000Y9107538D03*
X13450000Y16807538D03*
X15000000Y16807538D03*
D13*
X16725000Y19982538D03*
X16725000Y21632538D03*
D15*
X22850000Y11457538D03*
D16*
X21350000Y11457538D03*
D12*
X18475000Y21595038D03*
X18475000Y20020038D03*
D17*
X15100000Y20945038D03*
X14150000Y20945038D03*
X13200000Y20945038D03*
X13200000Y18670038D03*
X15100000Y18670038D03*
D18*
X9125000Y22100000D03*
X7475000Y22100000D03*
D12*
X18500000Y29287500D03*
X18500000Y27712500D03*
D10*
X16750000Y10632538D03*
X16750000Y9082538D03*
D17*
X15125000Y13245038D03*
X14175000Y13245038D03*
X13225000Y13245038D03*
X13225000Y10970038D03*
X15125000Y10970038D03*
D19*
X8725000Y18975000D03*
X8725000Y18125000D03*
X8725000Y17275000D03*
X8725000Y16425000D03*
X8725000Y15575000D03*
X8725000Y14725000D03*
X8725000Y13875000D03*
X8725000Y13025000D03*
X7375000Y13025000D03*
X7375000Y13875000D03*
X7375000Y14725000D03*
X7375000Y15575000D03*
X7375000Y16425000D03*
X7375000Y17275000D03*
X7375000Y18125000D03*
X7375000Y18975000D03*
D20*
X7745000Y20325000D03*
D21*
X4365000Y20325000D03*
D20*
X7745000Y11675000D03*
D21*
X4365000Y11675000D03*
D10*
X16750000Y26025000D03*
X16750000Y24475000D03*
D11*
X13400000Y22807538D03*
X15050000Y22807538D03*
D17*
X15125000Y5545038D03*
X14175000Y5545038D03*
X13225000Y5545038D03*
X13225000Y3270038D03*
X15125000Y3270038D03*
D11*
X13425000Y15107538D03*
X15075000Y15107538D03*
M02*
